<svg width="77" height="142" viewBox="0 0 77 142" fill="none" xmlns="http://www.w3.org/2000/svg">
<path d="M26.7361 0H50.2639H54.5417L77 40.0376L54.5417 142H22.4583L0 40.0376L22.4583 0H26.7361Z" fill="#5F5F5F"/>
<path d="M49.0833 7H25.25L11 32.6725M28.9167 7H52.75L72 41.6805L56.5643 112.5M6.28761 43L6 41.6805L11 32.6725M6.28761 43L25.25 130H52M6.28761 43L11 32.6725M56.5643 112.5L52.75 130H52M56.5643 112.5L52 130" stroke="#818181"/>
<path d="M46.3228 39.1871L54.8905 47.7549" stroke="#818181"/>
<path d="M54.8906 39.1871L46.3229 47.7549" stroke="#818181"/>
<path d="M21.6904 39.1871L30.2582 47.7549" stroke="#818181"/>
<path d="M30.2583 39.1871L21.6906 47.7549" stroke="#818181"/>
<path d="M29 56C31.9071 61.2824 39.777 68.6777 48 56H29Z" fill="#818181" stroke="#818181"/>
</svg>
