<svg width="77" height="142" viewBox="0 0 77 142" fill="none" xmlns="http://www.w3.org/2000/svg">
<path d="M26.7361 0H50.2639H54.5417L77 40.0376L54.5417 142H22.4583L0 40.0376L22.4583 0H26.7361Z" fill="#5F5F5F"/>
<path d="M48.0833 7H24.25L5.65523 40.5M27.9167 7H51.75L68 36.2757M70.8214 42.5L71 41.6805L68 36.2757M70.8214 42.5L51.75 130H24.25L6.59536 49M70.8214 42.5L68 36.2757M5.65523 40.5L5 41.6805L6.59536 49M5.65523 40.5L6.59536 49" stroke="#818181"/>
<path d="M45.6709 39.1871L54.2386 47.7549" stroke="#818181"/>
<path d="M54.2388 39.1871L45.671 47.7549" stroke="#818181"/>
<path d="M21.0386 39.1871L29.6063 47.7549" stroke="#818181"/>
<path d="M29.6064 39.1871L21.0387 47.7549" stroke="#818181"/>
<path d="M48 63C45.0929 57.7176 37.223 50.3223 29 63L48 63Z" fill="#818181" stroke="#818181"/>
</svg>
