<svg width="78" height="142" viewBox="0 0 78 142" fill="none" xmlns="http://www.w3.org/2000/svg">
<path d="M27.0833 0H50.9167H55.25L78 40.0376L55.25 142H22.75L0 40.0376L22.75 0H27.0833Z" fill="#5F5F5F"/>
<path d="M49.0833 7H25.25L6 41.9624L25.0338 130M28.9167 7H52.75L66.6597 32.2632M66.6597 32.2632L72 41.9624L71.7757 43M66.6597 32.2632L71.7757 43M71.7757 43L52.75 131H42.5M25.0338 130L25.25 131H42.5M25.0338 130L42.5 131" stroke="#818181"/>
<path d="M46.4966 39.6257L55.0643 48.1935" stroke="#818181"/>
<path d="M55.0645 39.6257L46.4967 48.1935" stroke="#818181"/>
<path d="M21.8643 39.6257L30.432 48.1935" stroke="#818181"/>
<path d="M30.4321 39.6257L21.8644 48.1935" stroke="#818181"/>
<path d="M45.5 60C45.5 62.3919 44.7991 64.5368 43.6909 66.0712C42.5822 67.6063 41.094 68.5 39.5 68.5C37.906 68.5 36.4178 67.6063 35.3091 66.0712C34.2009 64.5368 33.5 62.3919 33.5 60C33.5 57.6081 34.2009 55.4632 35.3091 53.9288C36.4178 52.3937 37.906 51.5 39.5 51.5C41.094 51.5 42.5822 52.3937 43.6909 53.9288C44.7991 55.4632 45.5 57.6081 45.5 60Z" fill="#818181" stroke="#818181"/>
</svg>
