<svg width="149" height="156" viewBox="0 0 149 156" fill="none" xmlns="http://www.w3.org/2000/svg">
<path d="M126.062 0L148.52 40.0376L126.062 142H93.9782L71.5199 40.0376L93.9782 1.66508e-07L126.062 0Z" fill="#5F5F5F"/>
<path d="M32.6976 13.4916L69.8878 40.4039L92.3039 142.376L63.184 155.843L0 72.7256L3.57764 26.959L32.6976 13.4916Z" fill="#5F5F5F"/>
<path d="M123.27 7.00012L142.52 41.6806L123.27 130H95.7699L76.5199 41.6806L95.7699 7.00012L123.27 7.00012Z" fill="#3E3E3E"/>
<path d="M111.222 59.4919H107.557C107.57 58.2016 107.681 57.1465 107.892 56.3266C108.115 55.4933 108.476 54.7339 108.975 54.0484C109.475 53.3629 110.138 52.5833 110.966 51.7097C111.57 51.078 112.122 50.4866 112.621 49.9355C113.133 49.371 113.547 48.7661 113.862 48.121C114.177 47.4624 114.335 46.6761 114.335 45.7621C114.335 44.8347 114.171 44.0349 113.842 43.3629C113.527 42.6909 113.054 42.1734 112.424 41.8105C111.806 41.4476 111.038 41.2661 110.118 41.2661C109.356 41.2661 108.634 41.4073 107.951 41.6895C107.268 41.9718 106.716 42.4086 106.296 43C105.875 43.578 105.658 44.3374 105.645 45.2782H102C102.026 43.7594 102.394 42.4556 103.103 41.3669C103.826 40.2782 104.798 39.4449 106.02 38.8669C107.241 38.289 108.608 38 110.118 38C111.787 38 113.205 38.3091 114.374 38.9274C115.557 39.5457 116.456 40.4328 117.074 41.5887C117.691 42.7312 118 44.0887 118 45.6613C118 46.871 117.757 47.9866 117.271 49.0081C116.798 50.0161 116.187 50.9637 115.438 51.8508C114.69 52.7379 113.895 53.5847 113.054 54.3911C112.332 55.0766 111.846 55.8495 111.596 56.7097C111.346 57.5699 111.222 58.4973 111.222 59.4919ZM107.399 65.8831C107.399 65.2782 107.583 64.7675 107.951 64.3508C108.319 63.9341 108.851 63.7258 109.547 63.7258C110.256 63.7258 110.795 63.9341 111.163 64.3508C111.53 64.7675 111.714 65.2782 111.714 65.8831C111.714 66.461 111.53 66.9583 111.163 67.375C110.795 67.7917 110.256 68 109.547 68C108.851 68 108.319 67.7917 107.951 67.375C107.583 66.9583 107.399 66.461 107.399 65.8831Z" fill="#5F5F5F"/>
<path d="M19 100L21.1951 97.3727M24.561 83L22.2195 87.3273L23.3902 94.7455L21.1951 97.3727M21.1951 97.3727L30.122 98.4545L31 94.7455" stroke="#313131"/>
<path d="M62.9999 34L62.5 38M51 41L54.5 42L55 37L62.5 38M62.5 38L58.5 42L59.5 46" stroke="#313131"/>
</svg>
