<svg width="166" height="166" viewBox="0 0 166 166" fill="none" xmlns="http://www.w3.org/2000/svg">
<path d="M115.062 -1.38757e-07L138.59 -2.60863e-07L142.868 -2.83064e-07L165.326 40.0376L142.868 142L110.785 142L88.3262 40.0376L110.785 -1.16556e-07L115.062 -1.38757e-07Z" fill="#5F5F5F"/>
<path d="M24.2666 25.1633L45.6212 15.2872L49.5039 13.4916L86.6941 40.4039L109.11 142.376L79.9903 155.843L16.8063 72.7256L20.3839 26.959L24.2666 25.1633Z" fill="#5F5F5F"/>
<path d="M116.243 7.00012L136.41 7.00012L140.076 7.00012L159.326 41.6806L140.076 130L112.576 130L93.3262 41.6806L112.576 7.00012L116.243 7.00012Z" fill="#3E3E3E"/>
<path d="M120.225 44.8788C120.225 45.4533 120.021 45.9918 119.614 46.4945C119.243 46.9971 118.836 47.2844 118.392 47.3562C117.947 47.428 117.521 47.3921 117.114 47.2485C116.707 47.069 116.355 46.8176 116.059 46.4945C115.762 46.1714 115.503 45.7944 115.281 45.3635C115.096 44.8968 115.003 44.4121 115.003 43.9094C114.966 42.4015 115.244 41.0371 115.836 39.8164C116.466 38.5957 117.318 37.5545 118.392 36.6928C119.466 35.8311 120.706 35.1669 122.113 34.7001C123.521 34.2334 125.002 34 126.557 34C128.15 34 129.631 34.2154 131.001 34.6463C132.408 35.0412 133.63 35.6695 134.667 36.5312C135.704 37.357 136.519 38.3982 137.111 39.6548C137.704 40.9115 138 42.3835 138 44.071C138 44.8609 137.815 45.7226 137.445 46.6561C137.111 47.5537 136.667 48.4871 136.111 49.4565C135.556 50.39 134.926 51.3415 134.223 52.3109C133.519 53.2444 132.816 54.1599 132.112 55.0575C130.408 57.104 129.242 59.1685 128.612 61.2509C127.983 63.2974 127.631 65.2183 127.557 67.0135H125.835C125.613 62.8845 126.909 58.7556 129.723 54.6267C130.168 53.9804 130.649 53.2623 131.168 52.4725C131.686 51.6467 132.167 50.785 132.612 49.8874C133.056 48.9539 133.408 48.0024 133.667 47.033C133.964 46.0636 134.112 45.0763 134.112 44.071C134.038 41.1628 133.26 38.9906 131.779 37.5545C130.297 36.0824 128.501 35.3464 126.391 35.3464C125.206 35.3464 124.113 35.508 123.113 35.8311C122.15 36.1542 121.299 36.5851 120.558 37.1236C119.817 37.6622 119.243 38.2725 118.836 38.9547C118.429 39.6369 118.225 40.3191 118.225 41.0012C118.225 41.4321 118.318 41.7911 118.503 42.0783C118.725 42.3297 118.966 42.581 119.225 42.8323C119.484 43.0836 119.706 43.3709 119.891 43.694C120.114 44.0171 120.225 44.4121 120.225 44.8788ZM126.446 78C125.446 78 124.632 77.6769 124.002 77.0306C123.372 76.4202 123.058 75.6663 123.058 74.7687C123.058 73.907 123.372 73.153 124.002 72.5067C124.669 71.8246 125.483 71.4835 126.446 71.4835C127.446 71.4835 128.279 71.8066 128.946 72.4529C129.612 73.0991 129.946 73.8711 129.946 74.7687C129.946 75.6663 129.612 76.4202 128.946 77.0306C128.279 77.6769 127.446 78 126.446 78Z" fill="#5F5F5F"/>
</svg>
