<svg width="150" height="137" viewBox="0 0 150 137" fill="none" xmlns="http://www.w3.org/2000/svg">
<path d="M28.2545 48.2977C30.6987 21.6236 54.3038 1.98143 80.9778 4.42566V4.42566C107.652 6.86988 127.294 30.4749 124.85 57.149L117.595 136.317L21.0001 127.466L28.2545 48.2977Z" fill="#5F5F5F"/>
<path d="M101.345 72.5684L52.5888 95.06L57.4884 41.5905L101.345 72.5684Z" fill="#818181"/>
<path d="M1 131.5L47.0595 119L74.492 136L112.085 119L149 131.5" stroke="#545454" style="mix-blend-mode:color-dodge"/>
<path d="M128 55.5L119.5 46.5L115 46.8333M106 38L112 40L115 46.8333M115 46.8333L108.5 46.5L112 51.5" stroke="#313131"/>
<path d="M19 99.5L27.5 90.5L32 90.8333M41 82L35 84L32 90.8333M32 90.8333L38.5 90.5L35 95.5M38.5 82.8333V76" stroke="#313131"/>
</svg>
